<?xml version="1.0" encoding="utf-8"?>
<!-- Generator: Adobe Illustrator 21.1.0, SVG Export Plug-In . SVG Version: 6.00 Build 0)  -->
<svg version="1.1" id="Layer_1" xmlns="http://www.w3.org/2000/svg" xmlns:xlink="http://www.w3.org/1999/xlink" x="0px" y="0px"
	 viewBox="0 0 792.5 615" style="enable-background:new 0 0 792.5 615;" xml:space="preserve">
<style type="text/css">
	.st0{fill:none;}
	.st1{fill:#FFFFFF;}
	.st2{font-family:'Courier';}
	.st3{font-size:11.2399px;}
	.st4{font-family:'MyriadPro-Regular';}
	.st5{font-size:12px;}
	.st6{font-size:6px;}
	.st7{fill:#00FF00;}
	.st8{font-size:5.6199px;}
	.st9{fill:none;stroke:#00FF00;stroke-width:0.7512;stroke-miterlimit:10;}
	.st10{fill:none;stroke:#00FF00;stroke-miterlimit:10;}
	.st11{font-size:7.4932px;}
	.st12{font-size:7.494px;}
	.st13{font-size:6.5566px;}
	.st14{font-size:7.4924px;}
	.st15{font-size:7.4938px;}
	.st16{font-size:6.557px;}
	.st17{font-size:7px;}
	.st18{font-size:7.9994px;}
	.st19{fill:none;stroke:#20FF00;stroke-miterlimit:10;}
	.st20{fill:#35F208;}
	.st21{fill:none;stroke:#35F208;stroke-miterlimit:10;}
</style>
<rect x="0.5" y="0.5" width="791.5" height="614"/>
<rect x="285.9" y="256.8" class="st0" width="90.1" height="18.7"/>
<text transform="matrix(1 0 0 1 285.9082 263.9555)" class="st1 st2 st3">technologies</text>
<rect x="114.7" y="174.7" class="st0" width="78.2" height="21.5"/>
<text transform="matrix(1 0 0 1 114.7354 181.9125)" class="st1 st2 st3">computer </text>
<text transform="matrix(1 0 0 1 114.7354 195.4125)" class="st1 st2 st3">vision</text>
<rect x="101.5" y="278.1" class="st0" width="151.8" height="67.6"/>
<text transform="matrix(1 0 0 1 101.52 285.3119)" class="st1 st2 st3">machine learning</text>
<rect x="194.9" y="95.8" class="st0" width="131.5" height="34.5"/>
<text transform="matrix(1 0 0 1 198.8579 106.0102)" class="st1 st2 st3">network </text>
<text transform="matrix(1 0 0 1 198.8579 119.5102)" class="st1 st2 st3">infrastructure</text>
<rect x="229.5" y="197.2" class="st0" width="85.9" height="26.8"/>
<text transform="matrix(1 0 0 1 229.4551 204.3856)" class="st1 st2 st3">“the cloud” </text>
<text transform="matrix(1 0 0 1 229.4551 217.8856)" class="st1 st2 st3">(what is it)</text>
<rect x="79.5" y="361.8" class="st0" width="62.1" height="26.1"/>
<text transform="matrix(1 0 0 1 79.4683 369.0072)" class="st1 st2 st3">digital </text>
<text transform="matrix(1 0 0 1 79.4683 382.5072)" class="st1 st2 st3">labor</text>
<rect x="269.6" y="313.3" class="st0" width="69.9" height="14.6"/>
<text transform="matrix(1 0 0 1 269.623 320.5111)" class="st1 st2 st3">automation</text>
<rect x="550.5" y="215" class="st0" width="114" height="36.8"/>
<text transform="matrix(1 0 0 1 550.5107 222.182)" class="st1 st2 st3">“the corporate”</text>
<rect x="440.3" y="271.9" class="st0" width="95.1" height="33.7"/>
<text transform="matrix(1 0 0 1 440.2998 280.4198)" class="st4 st5">po</text>
<text transform="matrix(1 0 0 1 440.3184 279.1215)" class="st1 st2 st3">“the state”</text>
<rect x="287.4" y="409.3" class="st0" width="86.7" height="24.5"/>
<text transform="matrix(1 0 0 1 287.3999 413.1342)" class="st2 st6">Lorem ipsum dolor sit </text>
<text transform="matrix(1 0 0 1 287.3999 420.3342)" class="st2 st6">amet, consectetuer </text>
<text transform="matrix(1 0 0 1 287.3999 427.5342)" class="st2 st6">adipiscing elit, sed </text>
<text transform="matrix(1 0 0 1 285.9165 420.1402)" class="st1 st2 st3">data</text>
<text transform="matrix(1 0 0 1 411.5459 445.4242)" class="st1 st2 st3">surveillance</text>
<rect x="605" y="302.5" class="st0" width="102.8" height="28.4"/>
<text transform="matrix(1 0 0 1 602.0264 309.7055)" class="st1 st2 st3">military </text>
<text transform="matrix(1 0 0 1 602.0264 323.2055)" class="st1 st2 st3">technologies</text>
<text transform="matrix(1 0 0 1 376.9512 355.5863)" class="st1 st2 st3">neoliberal capital</text>
<rect x="399.7" y="198.4" class="st0" width="85.9" height="30.7"/>
<text transform="matrix(1 0 0 1 399.6748 205.621)" class="st1 st2 st3">consumer </text>
<text transform="matrix(1 0 0 1 399.6748 219.121)" class="st1 st2 st3">technologies</text>
<rect x="453.7" y="144.6" class="st0" width="105" height="35.3"/>
<text transform="matrix(1 0 0 1 453.7432 151.7362)" class="st1 st2 st3">“the interface”</text>
<rect x="558.1" y="202.1" transform="matrix(0.5 -0.866 0.866 0.5 42.9149 635.5913)" class="st0" width="27.6" height="157"/>
<text transform="matrix(0.866 0.5 -0.5 0.866 509.0381 232.4727)" class="st7 st2 st8">are they different from</text>
<line class="st9" x1="483.8" y1="216" x2="504.8" y2="228.7"/>
<line class="st9" x1="582.1" y1="273.3" x2="618.2" y2="293.4"/>
<line class="st10" x1="-74.5" y1="273.6" x2="-75.5" y2="273.6"/>
<rect x="382.8" y="282.5" transform="matrix(0.7071 -0.7071 0.7071 0.7071 -118.618 374.2361)" class="st0" width="19.3" height="95.6"/>
<text transform="matrix(0.7071 0.7071 -0.7071 0.7071 362.0943 293.0777)" class="st7 st2 st11">enable</text>
<line class="st10" x1="339.5" y1="270.8" x2="358.7" y2="288.2"/>
<line class="st10" x1="386.8" y1="315.3" x2="412.1" y2="335.9"/>
<line class="st0" x1="225.2" y1="138.8" x2="250.5" y2="185.6"/>
<line class="st10" x1="339.5" y1="270.8" x2="339.5" y2="275.5"/>
<line class="st10" x1="344.7" y1="271.3" x2="340" y2="271.3"/>
<line class="st10" x1="411.2" y1="335.9" x2="410.2" y2="330.3"/>
<line class="st10" x1="405.6" y1="335" x2="411.2" y2="335"/>
<line class="st10" x1="484.2" y1="216.5" x2="484.2" y2="220.2"/>
<line class="st10" x1="488" y1="215.6" x2="484.2" y2="216.5"/>
<line class="st10" x1="618.2" y1="293.3" x2="617.2" y2="289.6"/>
<line class="st10" x1="614.4" y1="294.2" x2="618.2" y2="293.3"/>
<path class="st10" d="M100.2,389.3c0,64.2,66.6,116.1,148.9,116.1"/>
<rect x="258.2" y="502.4" class="st0" width="49.4" height="9.7"/>
<text transform="matrix(1 0 0 1 258.2427 507.1488)" class="st7 st2 st11">requires</text>
<line class="st0" x1="481.9" y1="294.7" x2="602.7" y2="312.5"/>
<rect x="255.4" y="478.8" transform="matrix(0.9703 -0.2419 0.2419 0.9703 -108.6885 81.7158)" class="st0" width="46.1" height="9.4"/>
<text transform="matrix(0.9703 -0.2419 0.2419 0.9703 256.1147 489.1765)" class="st7 st2 st11">produces</text>
<path class="st10" d="M156.4,479.2c0,5.7,41.5,10.3,92.7,10.3"/>
<rect x="233.6" y="146.2" transform="matrix(0.9272 -0.3746 0.3746 0.9272 -50.1537 102.7733)" class="st0" width="11.4" height="68.4"/>
<text transform="matrix(0.3746 0.9272 -0.9272 0.3746 227.3815 148.3635)" class="st7 st2 st11">produces</text>
<rect x="250.5" y="92" transform="matrix(0.9397 -0.342 0.342 0.9397 -30.984 96.8638)" class="st0" width="17.4" height="88.6"/>
<text transform="matrix(-0.342 -0.9397 0.9397 -0.342 270.6528 179.2928)" class="st7 st2 st11">hides</text>
<line class="st10" x1="242.6" y1="182.3" x2="245.4" y2="188.9"/>
<line class="st10" x1="238.8" y1="187.9" x2="244.5" y2="188.9"/>
<line class="st10" x1="249.1" y1="185.1" x2="245.4" y2="188.9"/>
<line class="st10" x1="269.7" y1="181.4" x2="273.5" y2="190.7"/>
<line class="st10" x1="259.4" y1="156.1" x2="253.8" y2="141.1"/>
<line class="st10" x1="249.1" y1="146.7" x2="252.9" y2="141.1"/>
<line class="st10" x1="261.3" y1="143" x2="251.9" y2="141.1"/>
<line class="st10" x1="222.9" y1="133.6" x2="227.6" y2="145.8"/>
<rect x="434.3" y="359.3" transform="matrix(0.8192 -0.5736 0.5736 0.8192 -153.2271 328.2738)" class="st0" width="19.3" height="95.6"/>
<text transform="matrix(0.5736 0.8192 -0.8192 0.5736 420.5353 365.1757)" class="st7 st2 st12">deploys</text>
<rect x="606.6" y="512.7" class="st0" width="56.6" height="17.6"/>
<text transform="matrix(1 0 0 1 580.7607 523.5688)" class="st1 st2 st3">privacy</text>
<path class="st10" d="M473.5,298.9c0,25.4,48.2,45.9,107.7,45.9"/>
<path class="st10" d="M707.2,300.3c0,25.4-29.7,45.9-66.5,45.9"/>
<path class="st10" d="M707.2,300.3c0-40.9-26.8-74-59.9-74"/>
<line class="st10" x1="469.2" y1="304.1" x2="473" y2="299.4"/>
<line class="st10" x1="479.6" y1="303.1" x2="473" y2="299.4"/>
<line class="st10" x1="647.2" y1="227.3" x2="651" y2="232.9"/>
<line class="st10" x1="652.8" y1="223.5" x2="646.3" y2="226.3"/>
<rect x="587.9" y="343" class="st0" width="51.2" height="12.7"/>
<text transform="matrix(1 0 0 1 587.8691 347.7787)" class="st7 st2 st11">depends on</text>
<line class="st10" x1="494.5" y1="326.6" x2="597.1" y2="386"/>
<line class="st10" x1="687.5" y1="333.1" x2="597.6" y2="385.6"/>
<rect x="593.3" y="369.9" class="st0" width="8" height="109"/>
<text transform="matrix(4.489659e-11 -1 1 4.489659e-11 598.0693 478.8832)" class="st7 st2 st11">never existed under</text>
<rect x="406.1" y="154.7" transform="matrix(0.7547 -0.6561 0.6561 0.7547 1.4766 331.9171)" class="st0" width="76.9" height="18.6"/>
<text transform="matrix(0.7547 -0.6561 0.6561 0.7547 412.5331 185.8216)" class="st7 st2 st11">deploy</text>
<line class="st10" x1="436.9" y1="164" x2="450" y2="153.7"/>
<line class="st10" x1="444" y1="153.3" x2="449.6" y2="154.2"/>
<line class="st10" x1="450.5" y1="159.8" x2="449.6" y2="154.2"/>
<rect x="586.9" y="135.9" transform="matrix(0.6561 -0.7547 0.7547 0.6561 63.1018 510.6572)" class="st0" width="9.8" height="100.4"/>
<text transform="matrix(0.7547 0.6561 -0.6561 0.7547 554.42 152.5502)" class="st7 st2 st13">provides control for</text>
<line class="st10" x1="441.1" y1="394" x2="457.1" y2="427.7"/>
<line class="st10" x1="446.8" y1="426.8" x2="457.1" y2="428.6"/>
<line class="st10" x1="463.6" y1="422.1" x2="457.1" y2="428.6"/>
<path class="st10" d="M450.5,453.9c0,28.5-67.4,51.5-150.8,51.5"/>
<rect x="331.6" y="384.8" transform="matrix(0.7771 -0.6293 0.6293 0.7771 -166.7274 308.3782)" class="st0" width="40.9" height="9.6"/>
<text transform="matrix(0.7771 -0.6293 0.6293 0.7771 336.1708 402.4073)" class="st7 st2 st14">maintains</text>
<line class="st10" x1="366.7" y1="372.2" x2="376.1" y2="361"/>
<line class="st10" x1="369" y1="362.1" x2="375.6" y2="361.2"/>
<line class="st10" x1="379.3" y1="366.8" x2="376.5" y2="361.2"/>
<line class="st10" x1="332" y1="404.8" x2="319.9" y2="412.3"/>
<line class="st10" x1="321.3" y1="403.4" x2="319.4" y2="411.8"/>
<line class="st10" x1="328.7" y1="416.5" x2="319.4" y2="411.8"/>
<rect x="523" y="434.3" transform="matrix(0.2419 -0.9703 0.9703 0.2419 -64.6944 874.1275)" class="st0" width="8.1" height="88.4"/>
<text transform="matrix(0.9703 0.2419 -0.2419 0.9703 483.9605 468.5112)" class="st7 st2 st11">can’t coexist with</text>
<path class="st10" d="M51.5,334c0-79.2,24.3-143.3,54.3-143.3"/>
<path class="st10" d="M51.5,346.2c0,104.1,68.7,188.3,153.6,188.3"/>
<path class="st10" d="M463.6,452.1c0,47.1-92.6,85.2-207,85.2"/>
<line class="st10" x1="51.5" y1="346.7" x2="51.5" y2="332.6"/>
<rect x="211.5" y="532.8" class="st0" width="85.8" height="14.9"/>
<text transform="matrix(1 0 0 1 211.4517 537.6059)" class="st7 st2 st11">automates</text>
<rect x="136.6" y="203.9" transform="matrix(0.9976 -6.975148e-02 6.975148e-02 0.9976 -16.1955 10.5071)" class="st0" width="11.5" height="66.5"/>
<text transform="matrix(6.975148e-02 0.9976 -0.9976 6.975148e-02 140.9559 203.8748)" class="st7 st2 st15">is a branch of</text>
<path class="st10" d="M182.6,294.7c0,15,11.3,27.2,25.3,27.2"/>
<rect x="212.6" y="320.1" class="st0" width="49.8" height="13.1"/>
<text transform="matrix(1 0 0 1 212.5591 324.3324)" class="st7 st2 st13">results in</text>
<rect x="408.6" y="287.3" transform="matrix(0.4695 -0.8829 0.8829 0.4695 -19.8166 559.6865)" class="st0" width="94.6" height="18.1"/>
<text transform="matrix(0.4695 -0.8829 0.8829 0.4695 429.8892 336.1215)" class="st7 st2 st11">controls</text>
<line class="st10" x1="445.8" y1="299.4" x2="451.5" y2="288.2"/>
<line class="st10" x1="447.8" y1="288.8" x2="451.4" y2="287.6"/>
<line class="st10" x1="453.4" y1="291.5" x2="452.4" y2="287.7"/>
<rect x="333.6" y="114.5" class="st0" width="14.2" height="134.7"/>
<text transform="matrix(4.489659e-11 -1 1 4.489659e-11 338.4175 249.182)" class="st7 st2 st11">are now invisible, such as</text>
<path class="st10" d="M335.9,130.8c0-17.1-30.2-30.9-67.4-30.9"/>
<line class="st10" x1="255.2" y1="322.3" x2="263.7" y2="322.3"/>
<line class="st10" x1="262.2" y1="319.1" x2="264.1" y2="322.8"/>
<line class="st10" x1="262.2" y1="326.6" x2="264.1" y2="322.8"/>
<rect x="316.2" y="308.9" transform="matrix(0.3746 -0.9272 0.9272 0.3746 -128.8936 519.9937)" class="st0" width="9.6" height="93.2"/>
<text transform="matrix(0.9272 0.3746 -0.3746 0.9272 278.0464 337.4594)" class="st7 st2 st13">is the </text>
<rect x="345.2" y="307.9" transform="matrix(0.1392 -0.9903 0.9903 0.1392 -49.7835 651.8219)" class="st0" width="9.6" height="93.2"/>
<text transform="matrix(0.9903 0.1392 -0.1392 0.9903 303.9988 347.4588)" class="st7 st2 st16">future of</text>
<path class="st10" d="M274,324.2c0,5.2,1.3,9.4,2.8,9.4"/>
<line class="st10" x1="345.1" y1="350.4" x2="362.9" y2="350.4"/>
<line class="st10" x1="359.7" y1="356.5" x2="362.5" y2="350.9"/>
<line class="st10" x1="359.7" y1="344.4" x2="362.5" y2="350.9"/>
<line class="st10" x1="422.4" y1="344.4" x2="427.1" y2="336.9"/>
<line class="st10" x1="403.2" y1="196.1" x2="409.7" y2="187.7"/>
<line class="st10" x1="617.2" y1="205.7" x2="621" y2="212.3"/>
<rect x="280.7" y="219" transform="matrix(0.1392 -0.9903 0.9903 0.1392 -17.259 511.3166)" class="st0" width="9.6" height="93.2"/>
<text transform="matrix(0.9903 0.1392 -0.1392 0.9903 239.3689 258.4763)" class="st7 st2 st16">such as</text>
<path class="st10" d="M166.2,192.1c0,35.7,31.4,64.6,70.2,64.6"/>
<path class="st10" d="M199.5,274.1c0-9.3,15.9-16.9,35.6-16.9"/>
<line class="st10" x1="269.7" y1="260.1" x2="282.9" y2="261"/>
<line class="st10" x1="163" y1="196.4" x2="165.8" y2="192.6"/>
<line class="st10" x1="173.3" y1="194.5" x2="165.8" y2="192.6"/>
<line class="st10" x1="195.7" y1="272.2" x2="199.5" y2="274.1"/>
<line class="st10" x1="203.2" y1="272.2" x2="199.5" y2="274.1"/>
<rect x="207.6" y="334.4" transform="matrix(0.6561 -0.7547 0.7547 0.6561 -217.1826 292.6402)" class="st0" width="9.8" height="100.4"/>
<text transform="matrix(0.7547 0.6561 -0.6561 0.7547 175.0753 351.1218)" class="st7 st2 st13">enables the use of</text>
<path class="st10" d="M164.4,293.3c0,29.5,4.2,53.4,9.4,53.4"/>
<line class="st10" x1="233.2" y1="397.7" x2="277.2" y2="413.7"/>
<line class="st10" x1="160.2" y1="296.6" x2="163.9" y2="293.8"/>
<line class="st10" x1="169.5" y1="297.5" x2="163.9" y2="293.8"/>
<rect x="79.7" y="307.9" transform="matrix(0.4695 -0.8829 0.8829 0.4695 -212.4376 280.3004)" class="st0" width="94.6" height="18.1"/>
<text transform="matrix(0.4695 -0.8829 0.8829 0.4695 100.066 356.1654)" class="st7 st2 st8">provides resources for</text>
<path class="st10" d="M588.7,511.7c0-13.5-10.1-24.4-22.5-24.4"/>
<line class="st10" x1="470.4" y1="451.3" x2="481.5" y2="461.6"/>
<line class="st10" x1="601.3" y1="510.1" x2="596.6" y2="483"/>
<line class="st10" x1="272.5" y1="97.6" x2="266.9" y2="100.4"/>
<line class="st10" x1="272.5" y1="102.6" x2="266.4" y2="99.8"/>
<rect x="489" y="195.5" class="st0" width="74.1" height="6.8"/>
<text transform="matrix(1 0 0 1 489.0117 199.0731)" class="st7 st2 st8">creates</text>
<path class="st10" d="M572.7,210.9c0-7.2-24.7-13.1-55.3-13.1"/>
<line class="st10" x1="486.1" y1="197.3" x2="464.6" y2="202"/>
<line class="st10" x1="470.2" y1="203.9" x2="464.6" y2="202"/>
<line class="st10" x1="467.4" y1="198.2" x2="464.6" y2="202"/>
<line class="st10" x1="621" y1="228.2" x2="629.4" y2="255.4"/>
<rect x="627.2" y="259.1" transform="matrix(0.9703 -0.2419 0.2419 0.9703 -47.4421 160.7755)" class="st0" width="7.7" height="29"/>
<text transform="matrix(0.2419 0.9703 -0.9703 0.2419 627.8004 259.5058)" class="st7 st2 st8">creates</text>
<line class="st10" x1="634.1" y1="284.4" x2="636" y2="295.6"/>
<line class="st10" x1="639.7" y1="293.8" x2="636" y2="296.6"/>
<line class="st10" x1="630.4" y1="294.7" x2="636" y2="296.6"/>
<rect x="532.1" y="306.9" class="st0" width="74.1" height="6.8"/>
<text transform="matrix(1 0 0 1 532.0977 310.5346)" class="st7 st2 st8">produces</text>
<line class="st10" x1="561.2" y1="308.5" x2="589.3" y2="309.4"/>
<line class="st10" x1="583.7" y1="303.4" x2="588.4" y2="308.1"/>
<line class="st10" x1="583.5" y1="314.6" x2="589.2" y2="309"/>
<path class="st10" d="M493.6,284.4c0,13.5,15.5,24.4,34.7,24.4"/>
<path class="st10" d="M292,184.2c0-30.5,19.7-55.3,44-55.3"/>
<line class="st10" x1="285.9" y1="179.6" x2="291.6" y2="184.3"/>
<line class="st10" x1="299.9" y1="180.8" x2="292.4" y2="184.6"/>
<rect x="377.9" y="88.4" class="st0" width="105" height="17.6"/>
<text transform="matrix(1 0 0 1 377.874 95.537)" class="st1 st2 st3">“the subject”</text>
<path class="st10" d="M126,162.2C126,106.3,158.7,61,199.1,61"/>
<path class="st10" d="M418.7,82.1c0-12.9-51.5-23.4-115.2-23.4"/>
<rect x="202.3" y="57.1" class="st0" width="116.6" height="11.2"/>
<text transform="matrix(1 0 0 1 202.9934 60.3467)" class="st7 st2 st17">redefines “vision” for</text>
<line class="st10" x1="410.7" y1="78.8" x2="418.2" y2="81.6"/>
<line class="st10" x1="424.3" y1="77.4" x2="418.7" y2="82.1"/>
<rect x="415.5" y="117.6" class="st0" width="88.9" height="13.7"/>
<text transform="matrix(1 0 0 1 416.6292 120.7183)" class="st7 st2 st8">depends on</text>
<line class="st10" x1="425.7" y1="102.2" x2="427.6" y2="114.4"/>
<line class="st10" x1="423.4" y1="104.6" x2="425.2" y2="102.7"/>
<line class="st10" x1="429" y1="104.6" x2="426.2" y2="102.7"/>
<path class="st10" d="M374.9,205.8c0-47.1,17.2-85.2,38.4-85.2"/>
<path class="st10" d="M374.9,203.7c0,37.3,28.1,67.4,62.8,67.4"/>
<line class="st10" x1="434.9" y1="267.4" x2="437.7" y2="271.1"/>
<line class="st10" x1="434" y1="275.8" x2="437.7" y2="271.1"/>
<path class="st10" d="M637.8,210.4c0-50.2-80.9-90.9-180.8-90.9"/>
<line class="st10" x1="633.2" y1="207.6" x2="637.8" y2="210.4"/>
<line class="st10" x1="644.4" y1="206.7" x2="637.8" y2="211.3"/>
<line class="st10" x1="469.5" y1="93.6" x2="554.5" y2="96.6"/>
<path class="st10" d="M749.5,281.6c0-100-68-181-152-181"/>
<path class="st10" d="M749.5,280.6c0,130.4-50.1,236-112,236"/>
<rect x="562.2" y="95.9" class="st0" width="52.1" height="14.9"/>
<text transform="matrix(1 0 0 1 562.1709 99.7475)" class="st7 st2 st6">desires</text>
<rect x="18" y="13.8" class="st0" width="105.2" height="27.4"/>
<rect x="691" y="13.8" class="st0" width="105.2" height="27.4"/>
<rect x="12.8" y="589.6" class="st0" width="113" height="30.9"/>
<line class="st10" x1="469.5" y1="455.6" x2="470.5" y2="451.6"/>
<line class="st10" x1="476.5" y1="452.6" x2="470.5" y2="451.6"/>
<line class="st10" x1="585.5" y1="508.6" x2="588.5" y2="511.6"/>
<line class="st10" x1="591.5" y1="509.6" x2="588.5" y2="511.6"/>
<path class="st10" d="M353.5,234.6c0-61.4,3.6-111,8-111"/>
<rect x="355.1" y="87.7" transform="matrix(0.6709 -0.7416 0.7416 0.6709 50.2284 315.9674)" class="st0" width="51.9" height="27.4"/>
<text transform="matrix(0.6018 -0.7986 0.7986 0.6018 364.6863 121.0243)" class="st7 st2 st18">uses</text>
<line class="st10" x1="376.5" y1="103.6" x2="383.5" y2="97.6"/>
<line class="st10" x1="348.5" y1="231.6" x2="352.5" y2="235.6"/>
<line class="st10" x1="358.5" y1="231.6" x2="352.5" y2="235.6"/>
<line class="st19" x1="637.4" y1="516.4" x2="643.6" y2="510.1"/>
<line class="st19" x1="644.3" y1="523.3" x2="637.4" y2="516.4"/>
<line class="st19" x1="459.5" y1="456.3" x2="463.5" y2="451.8"/>
<line class="st19" x1="467.3" y1="457.6" x2="463.5" y2="451.8"/>
<line class="st19" x1="275.4" y1="406.9" x2="277.2" y2="413.7"/>
<line class="st19" x1="270.8" y1="418.4" x2="277.2" y2="413.7"/>
<line class="st10" x1="446.2" y1="457.8" x2="450.5" y2="453.9"/>
<line class="st10" x1="453.3" y1="458.9" x2="450.5" y2="453.9"/>
<line class="st10" x1="306.9" y1="433.4" x2="309.7" y2="428.1"/>
<line class="st10" x1="486.5" y1="292.1" x2="493.6" y2="284.4"/>
<line class="st10" x1="502.5" y1="290.1" x2="493.6" y2="284.4"/>
<path class="st10" d="M309.7,428.1c0,26.7-7,48.2-15.6,48.2"/>
<rect x="352.2" y="433.3" class="st0" width="45.6" height="10.1"/>
<text transform="matrix(1 0 0 1 352.2368 437.1649)" class="st20 st2 st6">employs</text>
<line class="st21" x1="406.9" y1="442.6" x2="381.7" y2="436.5"/>
<line class="st21" x1="350.4" y1="435.6" x2="330.7" y2="427.1"/>
<line class="st21" x1="330.7" y1="433.8" x2="330.7" y2="427.1"/>
<line class="st21" x1="337.6" y1="426.2" x2="330.7" y2="427.1"/>
<line class="st10" x1="315.3" y1="433.9" x2="309.7" y2="428.1"/>
</svg>
